<svg width="20" height="20" viewBox="0 0 20 20" fill="none" xmlns="http://www.w3.org/2000/svg">
<circle cx="10" cy="10" r="10" fill="#EB5757"/>
<g clip-path="url(#clip0)">
<path d="M10.1858 7.9636L6.88168 10.8337V13.9315C6.88168 14.0117 6.91189 14.0886 6.96566 14.1453C7.01944 14.202 7.09237 14.2339 7.16842 14.2339L9.17666 14.2284C9.25246 14.228 9.32502 14.196 9.37849 14.1393C9.43195 14.0826 9.46197 14.0059 9.46197 13.926V12.117C9.46197 12.0367 9.49217 11.9598 9.54595 11.9031C9.59972 11.8464 9.67266 11.8145 9.7487 11.8145H10.8957C10.9717 11.8145 11.0446 11.8464 11.0984 11.9031C11.1522 11.9598 11.1824 12.0367 11.1824 12.117V13.9247C11.1823 13.9645 11.1896 14.0039 11.204 14.0407C11.2183 14.0775 11.2394 14.1109 11.2661 14.1391C11.2927 14.1673 11.3243 14.1897 11.3592 14.2049C11.394 14.2202 11.4314 14.228 11.4691 14.228L13.4767 14.2339C13.5527 14.2339 13.6256 14.202 13.6794 14.1453C13.7332 14.0886 13.7634 14.0117 13.7634 13.9315V10.8317L10.46 7.9636C10.4212 7.93058 10.3728 7.91258 10.3229 7.91258C10.273 7.91258 10.2246 7.93058 10.1858 7.9636ZM15.405 9.91439L13.9068 8.61191V5.9939C13.9068 5.93375 13.8841 5.87606 13.8438 5.83352C13.8034 5.79099 13.7487 5.76709 13.6917 5.76709H12.6881C12.6311 5.76709 12.5764 5.79099 12.5361 5.83352C12.4957 5.87606 12.4731 5.93375 12.4731 5.9939V7.36632L10.8686 5.97406C10.7146 5.84042 10.5214 5.76736 10.322 5.76736C10.1226 5.76736 9.92938 5.84042 9.77541 5.97406L5.23903 9.91439C5.21725 9.93338 5.19923 9.9567 5.18601 9.98303C5.17278 10.0094 5.1646 10.0382 5.16194 10.0678C5.15927 10.0975 5.16218 10.1274 5.17049 10.1559C5.17879 10.1844 5.19234 10.2109 5.21035 10.2338L5.66734 10.8198C5.6853 10.8428 5.7074 10.8619 5.73236 10.8759C5.75732 10.8899 5.78466 10.8986 5.81281 10.9015C5.84096 10.9043 5.86936 10.9013 5.8964 10.8926C5.92344 10.8838 5.94858 10.8696 5.97039 10.8506L10.1858 7.18865C10.2246 7.15563 10.273 7.13763 10.3229 7.13763C10.3728 7.13763 10.4212 7.15563 10.46 7.18865L14.6756 10.8506C14.6974 10.8696 14.7225 10.8839 14.7495 10.8926C14.7765 10.9014 14.8048 10.9044 14.833 10.9016C14.8611 10.8988 14.8884 10.8902 14.9134 10.8762C14.9383 10.8623 14.9605 10.8433 14.9785 10.8203L15.4354 10.2344C15.4534 10.2113 15.4669 10.1847 15.4751 10.1561C15.4833 10.1275 15.4861 10.0974 15.4833 10.0677C15.4804 10.038 15.4721 10.0091 15.4586 9.98281C15.4452 9.9565 15.427 9.93325 15.405 9.91439Z" fill="white"/>
</g>
<defs>
<clipPath id="clip0">
<rect width="10.3226" height="9.67742" fill="white" transform="translate(5.16129 5.16138)"/>
</clipPath>
</defs>
</svg>
