<svg width="23" height="20" viewBox="0 0 23 20" fill="none" xmlns="http://www.w3.org/2000/svg">
<g clip-path="url(#clip0)">
<path d="M18.4327 7.5C17.8972 7.49609 17.3869 7.58984 16.9089 7.76953L15.7266 5.625H18.6878C19.1658 5.625 19.5503 5.20703 19.5503 4.6875V3.4375C19.5503 2.91797 19.1658 2.5 18.6878 2.5H17.0598C16.8155 2.5 16.5819 2.61328 16.4202 2.80859L15.0725 4.4375L14.2531 2.95312C14.095 2.67187 13.8147 2.5 13.5128 2.5H10.6378C10.3216 2.5 10.0628 2.78125 10.0628 3.125V3.75C10.0628 4.09375 10.3216 4.375 10.6378 4.375H13.0241L13.7141 5.625H8.19046C7.55437 4.72266 6.57687 4.0625 4.60031 4.0625H2.60578C2.12062 4.0625 1.71453 4.49219 1.72531 5.01953C1.7325 5.52734 2.11703 5.9375 2.58781 5.9375H4.60031C5.48078 5.9375 5.99109 6.36328 6.31812 6.90625L5.91203 7.70703C5.44484 7.55469 4.94531 7.48438 4.42781 7.50391C2.00922 7.59766 0.0578092 9.75 0.000309195 12.3828C-0.0571908 15.1992 2.02359 17.5 4.60031 17.5C6.74218 17.5 8.54265 15.9062 9.05656 13.75H12.0825C12.5748 13.75 12.9666 13.3047 12.945 12.7695C12.8695 10.9297 13.5739 9.10937 14.9647 7.88672L15.4139 8.69922C14.422 9.625 13.7931 11 13.8039 12.5352C13.8219 15.2539 15.8595 17.4766 18.3608 17.5C20.9339 17.5273 23.0255 15.2539 23.0039 12.457C22.9787 9.73828 20.9339 7.51953 18.4327 7.5ZM4.60031 15.625C3.01547 15.625 1.72531 14.2227 1.72531 12.5C1.72531 10.7773 3.01547 9.375 4.60031 9.375C4.75125 9.375 4.90218 9.38672 5.04953 9.41406L3.55812 12.3594C3.24187 12.9844 3.65875 13.75 4.31281 13.75H7.23453C6.7889 14.8516 5.77547 15.625 4.60031 15.625ZM21.2717 12.6719C21.1927 14.2578 20.0139 15.5391 18.5584 15.6211C16.9017 15.7188 15.5253 14.2812 15.5253 12.5C15.5253 11.6641 15.8272 10.9062 16.3195 10.3477L18.0948 13.5664C18.2566 13.8633 18.6123 13.957 18.8855 13.7812L19.3778 13.4609C19.6509 13.2852 19.7372 12.8984 19.5755 12.6016L17.8289 9.44141C18.0158 9.39844 18.2062 9.37891 18.4003 9.37891C20.0391 9.375 21.358 10.8711 21.2717 12.6719Z" fill="#EB5757"/>
</g>
<defs>
<clipPath id="clip0">
<rect width="23" height="20" fill="white"/>
</clipPath>
</defs>
</svg>
